Coordinates
version=1
nRows=27
nColumns=12
inDegrees=yes

Units are S.I. units (second, meters, Newtons, ...)
Angles are in degrees

endheader
time	SC_y	SC_z	SC_x	AC_y	AC_z	AC_x	GH_y	GH_z	GH_yy	EL_x	PS_y
       0.0              -31.46        -0.2592          65.61           41.9         -10.21          2.108         -102.4          57.19          90.66          86.75          45.62
   0.04858              -31.47        -0.2598           65.6           41.9         -10.21          2.108         -102.4          57.19          90.64          86.74          45.62
   0.09715              -31.47        -0.2604          65.59           41.9         -10.21          2.109         -102.4          57.18          90.62          86.74          45.61
    0.1457              -31.48         -0.261          65.58          41.91         -10.21           2.11         -102.4          57.18          90.59          86.74          45.61
    0.1943              -31.48        -0.2616          65.57          41.91         -10.21          2.112         -102.3          57.18          90.57          86.74           45.6
    0.2429              -31.49        -0.2623          65.56          41.91         -10.22          2.113         -102.3          57.18          90.54          86.73          45.59
    0.2915              -31.49        -0.2631          65.55          41.92         -10.22          2.114         -102.2          57.18          90.51          86.73          45.59
      0.34               -31.5        -0.2639          65.54          41.92         -10.22          2.115         -102.2          57.18          90.48          86.73          45.58
    0.3886               -31.5        -0.2647          65.53          41.93         -10.22          2.117         -102.2          57.17          90.45          86.72          45.57
    0.4372              -31.51        -0.2657          65.52          41.93         -10.22          2.118         -102.1          57.17          90.41          86.72          45.56
    0.4858              -31.52        -0.2666          65.51          41.94         -10.23           2.12         -102.1          57.17          90.38          86.72          45.55
    0.5343              -31.53        -0.2677          65.49          41.94         -10.23          2.122         -102.0          57.17          90.34          86.71          45.54
    0.5829              -31.53        -0.2688          65.48          41.95         -10.23          2.124         -101.9          57.16          90.29          86.71          45.53
    0.6315              -31.54        -0.2701          65.46          41.95         -10.24          2.126         -101.9          57.16          90.24          86.71          45.51
    0.6801              -31.55        -0.2714          65.44          41.96         -10.24          2.128         -101.8          57.16          90.19           86.7           45.5
    0.7286              -31.56        -0.2729          65.42          41.97         -10.24           2.13         -101.7          57.15          90.14           86.7          45.49
    0.7772              -31.58        -0.2744           65.4          41.97         -10.25          2.133         -101.6          57.15          90.08          86.69          45.47
    0.8258              -31.59        -0.2761          65.38          41.98         -10.25          2.136         -101.5          57.14          90.01          86.68          45.45
    0.8744               -31.6         -0.278          65.35          41.99         -10.26          2.139         -101.4          57.14          89.94          86.68          45.43
    0.9229              -31.62        -0.2801          65.32           42.0         -10.26          2.142         -101.3          57.13          89.86          86.67          45.41
    0.9715              -31.63        -0.2823          65.29          42.01         -10.27          2.146         -101.2          57.13          89.78          86.66          45.39
      1.02              -31.65        -0.2848          65.26          42.02         -10.27           2.15         -101.1          57.12          89.68          86.65          45.36
     1.069              -31.67        -0.2875          65.22          42.04         -10.28          2.155         -100.9          57.12          89.58          86.64          45.33
     1.117              -31.69        -0.2905          65.18          42.05         -10.29           2.16         -100.8          57.11          89.46          86.63           45.3
     1.166              -31.72        -0.2939          65.13          42.07          -10.3          2.166         -100.6           57.1          89.33          86.62          45.27
     1.214              -31.75        -0.2977          65.08          42.09         -10.31          2.172         -100.4          57.09          89.19           86.6          45.23
     1.263              -31.78        -0.3019          65.03          42.11         -10.32          2.179         -100.2          57.08          89.03          86.59          45.19
